# xmcd CD database file
#
# Track frame offsets:
#	183
#	18445
#	31820
#	52335
#	77000
#	93173
#	103633
#	117690
#	143623
#	158313
#	174918
#	188110
#	209138
#	221533
#
# Disc length: 3236 seconds
#
# Revision: 0
# Processed by: cddbd v1.4PL0 Copyright (c) Steve Scherf et al.
# Submitted via: CDex 1.50Beta7
#
DISCID=b90ca20e
DTITLE=Henry Torgue - Solo&Variations
DYEAR=1997
DGENRE=New Age
TTITLE0=Le matin du fleuve
TTITLE1=les doigts de paille
TTITLE2=Dernière lettre du Prince
TTITLE3=Le parfum déchiré
TTITLE4=Tango des Survivants
TTITLE5=Bacchanale d'Ulysse
TTITLE6=Sur l'autre Rive
TTITLE7=Surface du Saké
TTITLE8=Solo continuo
TTITLE9=Blues de Plume
TTITLE10=Pour un funambule
TTITLE11=Odséduction
TTITLE12=te souviens-tu?
TTITLE13=Le feu aux rêves
EXTD=YEAR: 1997
EXTT0=
EXTT1=
EXTT2=
EXTT3=
EXTT4=
EXTT5=
EXTT6=
EXTT7=
EXTT8=
EXTT9=
EXTT10=
EXTT11=
EXTT12=
EXTT13=
PLAYORDER=
